<?xml version="1.0" encoding="UTF-8"?>
<!DOCTYPE svg PUBLIC "-//W3C//DTD SVG 1.1//EN" "http://www.w3.org/Graphics/SVG/1.1/DTD/svg11.dtd">
<!-- Creator: CorelDRAW 2019 (64-Bit) -->
<svg xmlns="http://www.w3.org/2000/svg" xml:space="preserve" width="20.5499mm" height="16.9896mm" version="1.1" style="shape-rendering:geometricPrecision; text-rendering:geometricPrecision; image-rendering:optimizeQuality; fill-rule:evenodd; clip-rule:evenodd"
viewBox="0 0 485.41 401.31"
 xmlns:xlink="http://www.w3.org/1999/xlink"
 xmlns:xodm="http://www.corel.com/coreldraw/odm/2003">
 <defs>
  <style type="text/css">
   <![CDATA[
    .str0 {stroke:white;stroke-width:1.8;stroke-miterlimit:22.9256}
    .fil1 {fill:#FEFEFE}
    .fil0 {fill:#E31E24}
    .fil2 {fill:#0033AB}
   ]]>
  </style>
 </defs>
 <g id="__x0023_Layer_x0020_2">
  <metadata id="CorelCorpID_0Corel-Layer"/>
  <path class="fil0" d="M182.01 314.37l13.94 -90.57c0.71,-4.62 2.53,-8.05 5.47,-10.29 2.94,-2.24 6.37,-3.36 10.29,-3.36 5.18,0 9.03,0.91 11.56,2.73 2.52,1.82 5,5.74 7.43,11.77l18.59 47.06 33.09 -47.06c4.29,-6.02 8.01,-9.94 11.16,-11.77 3.15,-1.82 7.32,-2.73 12.5,-2.73 3.92,0 7,1.12 9.25,3.36 2.24,2.24 3.01,5.67 2.3,10.29l-26 167.9c-0.41,2.66 -2.1,4.76 -5.07,6.3 -2.97,1.54 -6.28,2.31 -9.92,2.31 -3.78,0 -6.89,-0.77 -9.31,-2.31 -2.42,-1.54 -3.43,-3.64 -3.02,-6.3l19.69 -126.93 -31.31 43.7c-2.52,3.64 -5.88,5.46 -10.08,5.46 -4.06,0 -6.79,-1.82 -8.19,-5.46l-17.17 -45.38 -7.9 51.28c-0.41,2.66 -2.1,4.76 -5.07,6.3 -2.97,1.54 -6.27,2.31 -9.91,2.31 -3.78,0 -6.89,-0.77 -9.31,-2.31 -2.43,-1.54 -3.43,-3.64 -3.02,-6.3z"/>
  <path class="fil0" d="M123.23 355.1l28.82 -187.18c0.43,-2.8 2.08,-4.9 4.96,-6.3 2.87,-1.4 6.21,-2.1 9.99,-2.1 3.78,0 6.89,0.7 9.34,2.1 2.44,1.4 3.45,3.5 3.02,6.3l-26.46 171.84 51.26 0c2.52,0 4.33,1.19 5.44,3.57 1.11,2.39 1.41,5.19 0.91,8.4 -0.5,3.22 -1.66,6.03 -3.5,8.4 -1.84,2.38 -4.02,3.57 -6.54,3.57l-66.59 0c-3.23,0 -5.91,-0.77 -8.05,-2.31 -2.14,-1.54 -3.01,-3.64 -2.6,-6.3z"/>
  <path class="fil1" d="M244.38 147.82c0,0 -6.82,-6.04 -13.24,-6.15 0,0 -1.26,8.17 -2.14,13.92 4.54,-0.66 11.98,-0.14 11.98,-0.14l3.4 -7.63z"/>
  <path class="fil1" d="M240.56 158.99c0,0 -6.94,-0.77 -12.13,0.3 0.02,6.25 -1.37,9.37 -2.91,13.49 5.17,0 14.06,-6.07 14.06,-6.07l0.98 -7.72z"/>
  <path class="fil1" d="M241.97 170.19c-8.75,7.77 -17.57,8.76 -17.57,8.76 0,0 -2.33,10.13 1.71,15.08 0,0 9.13,-12.7 18.62,-17.93 0,0 0.8,-6.38 -2.77,-5.92z"/>
  <path class="fil1" d="M255.78 139.95l-7.52 -10.51c0,0 -3.18,-1.68 -8.33,-2.24 -5.14,-0.56 -8.42,-0.51 -8.42,-0.51 0,0 -1.38,5.89 0.34,10.36 11.47,2.49 14.9,7.16 14.9,7.16l9.04 -4.27z"/>
  <path class="fil1" d="M244.23 180.78c0,0 -11.7,12.15 -13.51,19.5 0,0 6.79,2.97 9.85,7.31 1.4,-6.7 4.7,-14.25 7.62,-18.36 0,0 -4.91,-1.83 -3.96,-8.46z"/>
  <path class="fil2" d="M244.38 147.82c0,0 -6.82,-6.04 -13.24,-6.15 0,0 -1.26,8.17 -2.14,13.92 4.54,-0.66 11.98,-0.14 11.98,-0.14l3.4 -7.63z"/>
  <path class="fil2" d="M240.56 158.99c0,0 -6.94,-0.77 -12.13,0.3 0.02,6.25 -1.37,9.37 -2.91,13.49 5.17,0 14.06,-6.07 14.06,-6.07l0.98 -7.72z"/>
  <path class="fil2" d="M241.97 170.19c-8.75,7.77 -17.57,8.76 -17.57,8.76 0,0 -2.33,10.13 1.71,15.08 0,0 9.13,-12.7 18.62,-17.93 0,0 0.8,-6.38 -2.77,-5.92z"/>
  <path class="fil2" d="M255.78 139.95l-7.52 -10.51c0,0 -3.18,-1.68 -8.33,-2.24 -5.14,-0.56 -8.42,-0.51 -8.42,-0.51 0,0 -1.38,5.89 0.34,10.36 11.47,2.49 14.9,7.16 14.9,7.16l9.04 -4.27z"/>
  <path class="fil2 str0" d="M244.23 180.78c0,0 -11.7,12.15 -13.51,19.5 0,0 6.79,2.97 9.85,7.31 1.4,-6.7 4.7,-14.25 7.62,-18.36 0,0 -4.91,-1.83 -3.96,-8.46z"/>
  <path class="fil2" d="M259.15 138.47l3.56 0 4.62 6.3c0,0 -0.02,0.17 0.53,-3.46 0.56,-3.61 -1.73,-11.88 -1.73,-11.88 0,0 -0.96,-1.56 -11.72,-0.49l4.74 9.53z"/>
  <path class="fil2" d="M279.01 138.47l-3.55 0 -6.55 6.3c0,0 -0.03,0.17 0.53,-3.46 0.56,-3.61 5.39,-11.88 5.39,-11.88 0,0 1.44,-1.56 11.86,-0.49l-7.67 9.53z"/>
  <path class="fil2" d="M242.25 152.69c0,0 3.86,0 8.99,0.81 7.47,1.19 6.67,3.56 6.67,3.56l-0.75 12.8 6.7 2.64 -2.26 14.65c0,0 -6.44,-0.12 -10.28,4.35l0.78 -3.37c0,0 1.19,-1.1 7.11,-3.95 0,0 1.74,-2.54 1.19,-5.08 -6.76,-3.45 -6.08,-5.38 -6.08,-5.38l1.76 -13.41 -1.56 -1.73 -1.91 -0.1c0,0 -3.74,4.47 -7.41,-0.71l-0.97 -1.63c0,0 0.14,-0.44 -3.68,-0.7 -3.82,-0.26 1.69,-2.75 1.69,-2.75z"/>
  <path class="fil2" d="M246.76 201.88c8.38,8.98 8.75,7.08 8.75,7.08l1.36 -8.8c0.72,0.45 1.58,0.73 2.55,0.73 0.03,-0 0.06,-0.01 0.09,-0.01l-3.78 24.53c-4.07,-4.81 -12.54,-10.28 -12.54,-10.28 0.34,-3.14 3.57,-13.25 3.57,-13.25z"/>
  <path class="fil2" d="M290.96 147.82c0,0 8.68,-6.04 15.13,-6.15 0,0 -1.41,9.17 -2.14,13.92 -4.33,-0.66 -11.94,-0.14 -11.94,-0.14l-1.05 -7.63z"/>
  <path class="fil2" d="M291.34 158.99c0,0 7.17,-0.77 12.04,0.3 -1.95,6.25 -1.51,9.37 -1.24,13.49 -5.17,0 -12.2,-6.07 -12.2,-6.07l1.39 -7.72z"/>
  <path class="fil2" d="M286.47 170.19c6.35,7.77 14.87,8.76 14.87,8.76 0,0 -0.79,10.13 -6.36,15.08 0,0 -5.22,-12.7 -13.1,-17.93 0,0 1.17,-6.38 4.59,-5.92z"/>
  <path class="fil2" d="M281.98 139.95l10.76 -10.51c0,0 3.69,-1.68 9.01,-2.24 5.32,-0.56 8.58,-0.51 8.58,-0.51 0,0 -0.43,5.89 -3.53,10.36 -12.23,2.49 -17.1,7.16 -17.1,7.16l-7.73 -4.27z"/>
  <path class="fil2" d="M280.96 180.78c0,0 7.95,12.15 7.5,19.5 0,0 -7.7,2.97 -12.1,7.31 0.66,-6.7 -0.31,-14.25 -1.97,-18.36 0,0 5.48,-1.83 6.57,-8.46z"/>
  <path class="fil2" d="M291.58 152.69c0,0 -3.86,0 -9.24,0.81 -7.84,1.19 -7.76,3.56 -7.76,3.56l-3.19 12.8 -7.52 2.64 -2.26 14.65c0,0 6.48,-0.12 8.94,4.35l0.26 -3.37c0,0 -0.85,-1.1 -5.89,-3.95 0,0 -0.96,-2.54 0.38,-5.08 7.82,-3.45 7.73,-5.38 7.73,-5.38l2.37 -13.41 2.1 -1.73 1.95 -0.1c0,0 2.36,4.47 7.62,-0.71l1.47 -1.63c0,0 -0.01,-0.43 3.89,-0.7 3.9,-0.26 -0.85,-2.75 -0.85,-2.75z"/>
  <path class="fil2" d="M271.94 201.81c-11.27,9.15 -10.95,7.15 -10.95,7.15l1.36 -8.8c-0.86,0.45 -1.8,0.73 -2.77,0.73 -0.03,-0 -0.05,-0.01 -0.09,-0.01l-3.78 24.53c6.14,-5.31 15.72,-10.35 15.72,-10.35 1.18,-2.29 0.51,-13.25 0.51,-13.25z"/>
  <path class="fil0" d="M236.1 401.31l-151.82 0c-3.47,0 -6.77,-1.52 -9.02,-4.15 -2.26,-2.63 -3.25,-6.12 -2.73,-9.55l31.46 -204.32 -9.33 9.63c-4.08,4.21 -10.63,4.82 -15.42,1.43l-74.23 -52.64c-2.58,-1.83 -4.32,-4.61 -4.85,-7.73 -0.1,-0.62 -0.16,-1.25 -0.16,-1.88l0 -0.2c0.02,-2.43 0.79,-4.81 2.22,-6.81 0.91,-1.27 22.74,-31.54 58.23,-62.15 47.73,-41.15 97.51,-62.92 143.97,-62.95l0.2 0c3.31,0.03 6.46,1.44 8.69,3.89 2.25,2.48 3.36,5.79 3.04,9.12 -0,0.04 -0.95,13.49 7.62,22.76 6.21,6.71 16.35,10.11 30.17,10.11 18.6,0 33.02,-6.22 42.84,-18.49 7.11,-8.87 9.26,-17.9 9.28,-17.99 1.16,-5.47 5.98,-9.39 11.57,-9.42l0.15 0c47.16,0.03 90.99,22.24 126.77,64.24 26.51,31.13 39.26,61.98 39.79,63.28 2.24,5.48 0.09,11.78 -5.03,14.77l-90.45 52.64c-5.45,3.17 -12.42,1.54 -15.9,-3.72l-7.09 -10.74 -6.11 39.7c-1,6.49 -7.06,10.94 -13.56,9.94 -6.49,-1 -10.94,-7.07 -9.94,-13.56l10.8 -70.15c0.75,-4.86 4.41,-8.75 9.21,-9.81 4.8,-1.05 9.75,0.96 12.46,5.06l17.88 27.07 71.34 -41.52c-5.47,-10.81 -16.08,-29.56 -31.93,-48.05 -29.29,-34.17 -62.85,-52.68 -99.89,-55.11 -2.13,5.11 -5.53,11.65 -10.79,18.21 -10.01,12.5 -28.79,27.4 -61.4,27.4 -20.89,0 -37.01,-6.07 -47.89,-18.05 -8.1,-8.9 -11.47,-19.3 -12.83,-27.38 -77.38,6.52 -143.08,79 -164.5,105.27l55.77 39.55 28.2 -29.12c3.6,-3.72 9.19,-4.68 13.83,-2.38 4.63,2.3 7.25,7.34 6.46,12.46l-35.03 227.51 137.96 0c6.57,0 11.89,5.32 11.89,11.89 0,6.57 -5.32,11.89 -11.89,11.89z"/>
 </g>
</svg>
